<mxfile modified="2023-11-07T19:50:21.167Z" host="app.diagrams.net" agent="5.0 (Macintosh; Intel Mac OS X 10_15_7) AppleWebKit/537.36 (KHTML, like Gecko) Chrome/118.0.0.0 Safari/537.36" etag="FURyyfDQS_xMZRt8z-D2" version="20.2.3" type="github">
  <diagram id="Ht1M8jgEwFfnCIfOTk4-" name="Page-1">
    <mxGraphModel dx="1139" dy="714" grid="1" gridSize="10" guides="1" tooltips="1" connect="1" arrows="1" fold="1" page="1" pageScale="1" pageWidth="1169" pageHeight="827" math="0" shadow="0">
      <root>
        <mxCell id="0" />
        <mxCell id="1" parent="0" />
        <mxCell id="-QjtrjUzRDEMRZ5MF8oH-47" value="Between VPCs" style="text;html=1;resizable=0;points=[];autosize=1;align=left;verticalAlign=top;spacingTop=-4;fontSize=30;fontStyle=1" parent="1" vertex="1">
          <mxGeometry x="56.5" y="74.5" width="230" height="40" as="geometry" />
        </mxCell>
        <mxCell id="-QjtrjUzRDEMRZ5MF8oH-48" value="Subtitle text&lt;br style=&quot;font-size: 16px&quot;&gt;" style="text;html=1;resizable=0;points=[];autosize=1;align=left;verticalAlign=top;spacingTop=-4;fontSize=16" parent="1" vertex="1">
          <mxGeometry x="56.5" y="124.5" width="100" height="20" as="geometry" />
        </mxCell>
        <mxCell id="SCVMTBWpLvtzJIhz15lM-1" value="" style="line;strokeWidth=2;html=1;fontSize=14;" parent="1" vertex="1">
          <mxGeometry x="52.5" y="149.5" width="1060" height="10" as="geometry" />
        </mxCell>
        <mxCell id="jZVaUwOg5UY3L9NAnvdq-28" value="Alexa Enabled&lt;br&gt;Device&lt;br&gt;" style="outlineConnect=0;fontColor=#232F3E;gradientColor=none;fillColor=#277116;strokeColor=none;dashed=0;verticalLabelPosition=bottom;verticalAlign=top;align=center;html=1;fontSize=12;fontStyle=0;aspect=fixed;pointerEvents=1;shape=mxgraph.aws4.alexa_enabled_device;" parent="1" vertex="1">
          <mxGeometry x="1239" y="1440" width="72" height="78" as="geometry" />
        </mxCell>
        <mxCell id="k1J5Uft5zTIaOylSxwT3-1" value="" style="rounded=0;whiteSpace=wrap;html=1;fillColor=#EAEDED;fontSize=22;fontColor=#FFFFFF;strokeColor=none;labelBackgroundColor=none;" parent="1" vertex="1">
          <mxGeometry x="1420" y="50" width="539" height="1350" as="geometry" />
        </mxCell>
        <mxCell id="k1J5Uft5zTIaOylSxwT3-2" value="1" style="rounded=1;whiteSpace=wrap;html=1;fillColor=#007CBD;strokeColor=none;fontColor=#FFFFFF;fontStyle=1;fontSize=22;labelBackgroundColor=none;" parent="1" vertex="1">
          <mxGeometry x="1438.5" y="62.5" width="40" height="38" as="geometry" />
        </mxCell>
        <mxCell id="k1J5Uft5zTIaOylSxwT3-3" value="2" style="rounded=1;whiteSpace=wrap;html=1;fillColor=#007CBD;strokeColor=none;fontColor=#FFFFFF;fontStyle=1;fontSize=22;labelBackgroundColor=none;" parent="1" vertex="1">
          <mxGeometry x="1396" y="880" width="40" height="38" as="geometry" />
        </mxCell>
        <mxCell id="k1J5Uft5zTIaOylSxwT3-4" value="3" style="rounded=1;whiteSpace=wrap;html=1;fillColor=#007CBD;strokeColor=none;fontColor=#FFFFFF;fontStyle=1;fontSize=22;labelBackgroundColor=none;" parent="1" vertex="1">
          <mxGeometry x="1396" y="1000" width="40" height="38" as="geometry" />
        </mxCell>
        <mxCell id="k1J5Uft5zTIaOylSxwT3-5" value="4" style="rounded=1;whiteSpace=wrap;html=1;fillColor=#007CBD;strokeColor=none;fontColor=#FFFFFF;fontStyle=1;fontSize=22;labelBackgroundColor=none;" parent="1" vertex="1">
          <mxGeometry x="1396" y="1114" width="40" height="38" as="geometry" />
        </mxCell>
        <mxCell id="k1J5Uft5zTIaOylSxwT3-6" value="5" style="rounded=1;whiteSpace=wrap;html=1;fillColor=#007CBD;strokeColor=none;fontColor=#FFFFFF;fontStyle=1;fontSize=22;labelBackgroundColor=none;" parent="1" vertex="1">
          <mxGeometry x="1397.5" y="1231" width="40" height="38" as="geometry" />
        </mxCell>
        <mxCell id="k1J5Uft5zTIaOylSxwT3-7" value="6" style="rounded=1;whiteSpace=wrap;html=1;fillColor=#007CBD;strokeColor=none;fontColor=#FFFFFF;fontStyle=1;fontSize=22;labelBackgroundColor=none;" parent="1" vertex="1">
          <mxGeometry x="1398.5" y="1346" width="40" height="38" as="geometry" />
        </mxCell>
        <mxCell id="k1J5Uft5zTIaOylSxwT3-8" value="7" style="rounded=1;whiteSpace=wrap;html=1;fillColor=#007CBD;strokeColor=none;fontColor=#FFFFFF;fontStyle=1;fontSize=22;labelBackgroundColor=none;" parent="1" vertex="1">
          <mxGeometry x="1398" y="1462" width="40" height="38" as="geometry" />
        </mxCell>
        <mxCell id="k1J5Uft5zTIaOylSxwT3-9" value="8" style="rounded=1;whiteSpace=wrap;html=1;fillColor=#007CBD;strokeColor=none;fontColor=#FFFFFF;fontStyle=1;fontSize=22;labelBackgroundColor=none;" parent="1" vertex="1">
          <mxGeometry x="1398.5" y="1580" width="40" height="38" as="geometry" />
        </mxCell>
        <mxCell id="k1J5Uft5zTIaOylSxwT3-10" value="9" style="rounded=1;whiteSpace=wrap;html=1;fillColor=#007CBD;strokeColor=none;fontColor=#FFFFFF;fontStyle=1;fontSize=22;labelBackgroundColor=none;" parent="1" vertex="1">
          <mxGeometry x="1396.5" y="1700" width="40" height="38" as="geometry" />
        </mxCell>
        <mxCell id="k1J5Uft5zTIaOylSxwT3-11" value="&lt;span&gt;Lorem ipsum dolor sit amet, consectetur adipiscing elit, sed do eiusmod tempor incididunt ut labore et dolore magna aliqua. Ut enim ad minim veniam, quis nostrud exercitation ullamco laboris nisi ut aliquip ex ea commodo consequat. Duis aute irure dolor in reprehenderit in voluptate velit esse cillum dolore eu fugiat nulla pariatur. Excepteur sint occaecat cupidatat non proident, sunt in culpa qui officia deserunt mollit anim id est laborum.&lt;/span&gt;&lt;br&gt;" style="text;html=1;align=left;verticalAlign=top;spacingTop=-4;fontSize=14;labelBackgroundColor=none;whiteSpace=wrap;" parent="1" vertex="1">
          <mxGeometry x="1490" y="62" width="449" height="118" as="geometry" />
        </mxCell>
        <mxCell id="k1J5Uft5zTIaOylSxwT3-12" value="&lt;span&gt;Lorem ipsum dolor sit amet, consectetur adipiscing elit, sed do eiusmod tempor incididunt ut labore et dolore magna aliqua. Ut enim ad minim veniam, quis nostrud exercitation ullamco laboris nisi ut aliquip ex ea commodo consequat. Duis aute irure dolor in reprehenderit in voluptate velit esse cillum dolore eu fugiat nulla pariatur. Excepteur sint occaecat cupidatat non proident, sunt in culpa qui officia deserunt mollit anim id est laborum.&lt;/span&gt;&lt;br&gt;" style="text;html=1;align=left;verticalAlign=top;spacingTop=-4;fontSize=14;labelBackgroundColor=none;whiteSpace=wrap;" parent="1" vertex="1">
          <mxGeometry x="1489" y="185" width="450" height="115" as="geometry" />
        </mxCell>
        <mxCell id="k1J5Uft5zTIaOylSxwT3-13" value="&lt;span&gt;Lorem ipsum dolor sit amet, consectetur adipiscing elit, sed do eiusmod tempor incididunt ut labore et dolore magna aliqua. Ut enim ad minim veniam, quis nostrud exercitation ullamco laboris nisi ut aliquip ex ea commodo consequat. Duis aute irure dolor in reprehenderit in voluptate velit esse cillum dolore eu fugiat nulla pariatur. Excepteur sint occaecat cupidatat non proident, sunt in culpa qui officia deserunt mollit anim id est laborum.&lt;/span&gt;&lt;br&gt;" style="text;html=1;align=left;verticalAlign=top;spacingTop=-4;fontSize=14;labelBackgroundColor=none;whiteSpace=wrap;" parent="1" vertex="1">
          <mxGeometry x="1489" y="303" width="450" height="117" as="geometry" />
        </mxCell>
        <mxCell id="k1J5Uft5zTIaOylSxwT3-14" value="&lt;span&gt;Lorem ipsum dolor sit amet, consectetur adipiscing elit, sed do eiusmod tempor incididunt ut labore et dolore magna aliqua. Ut enim ad minim veniam, quis nostrud exercitation ullamco laboris nisi ut aliquip ex ea commodo consequat. Duis aute irure dolor in reprehenderit in voluptate velit esse cillum dolore eu fugiat nulla pariatur. Excepteur sint occaecat cupidatat non proident, sunt in culpa qui officia deserunt mollit anim id est laborum.&lt;/span&gt;&lt;br&gt;" style="text;html=1;align=left;verticalAlign=top;spacingTop=-4;fontSize=14;labelBackgroundColor=none;whiteSpace=wrap;" parent="1" vertex="1">
          <mxGeometry x="1489" y="419" width="450" height="121" as="geometry" />
        </mxCell>
        <mxCell id="k1J5Uft5zTIaOylSxwT3-15" value="&lt;span&gt;Lorem ipsum dolor sit amet, consectetur adipiscing elit, sed do eiusmod tempor incididunt ut labore et dolore magna aliqua. Ut enim ad minim veniam, quis nostrud exercitation ullamco laboris nisi ut aliquip ex ea commodo consequat. Duis aute irure dolor in reprehenderit in voluptate velit esse cillum dolore eu fugiat nulla pariatur. Excepteur sint occaecat cupidatat non proident, sunt in culpa qui officia deserunt mollit anim id est laborum.&lt;/span&gt;&lt;br&gt;" style="text;html=1;align=left;verticalAlign=top;spacingTop=-4;fontSize=14;labelBackgroundColor=none;whiteSpace=wrap;" parent="1" vertex="1">
          <mxGeometry x="1490" y="536" width="449" height="114" as="geometry" />
        </mxCell>
        <mxCell id="k1J5Uft5zTIaOylSxwT3-16" value="&lt;span&gt;Lorem ipsum dolor sit amet, consectetur adipiscing elit, sed do eiusmod tempor incididunt ut labore et dolore magna aliqua. Ut enim ad minim veniam, quis nostrud exercitation ullamco laboris nisi ut aliquip ex ea commodo consequat. Duis aute irure dolor in reprehenderit in voluptate velit esse cillum dolore eu fugiat nulla pariatur. Excepteur sint occaecat cupidatat non proident, sunt in culpa qui officia deserunt mollit anim id est laborum.&lt;/span&gt;&lt;br&gt;" style="text;html=1;align=left;verticalAlign=top;spacingTop=-4;fontSize=14;labelBackgroundColor=none;whiteSpace=wrap;" parent="1" vertex="1">
          <mxGeometry x="1490" y="652" width="450" height="118" as="geometry" />
        </mxCell>
        <mxCell id="k1J5Uft5zTIaOylSxwT3-17" value="&lt;span&gt;Lorem ipsum dolor sit amet, consectetur adipiscing elit, sed do eiusmod tempor incididunt ut labore et dolore magna aliqua. Ut enim ad minim veniam, quis nostrud exercitation ullamco laboris nisi ut aliquip ex ea commodo consequat. Duis aute irure dolor in reprehenderit in voluptate velit esse cillum dolore eu fugiat nulla pariatur. Excepteur sint occaecat cupidatat non proident, sunt in culpa qui officia deserunt mollit anim id est laborum.&lt;/span&gt;&lt;br&gt;" style="text;html=1;align=left;verticalAlign=top;spacingTop=-4;fontSize=14;labelBackgroundColor=none;whiteSpace=wrap;" parent="1" vertex="1">
          <mxGeometry x="1490" y="767" width="449" height="113" as="geometry" />
        </mxCell>
        <mxCell id="k1J5Uft5zTIaOylSxwT3-18" value="&lt;span&gt;Lorem ipsum dolor sit amet, consectetur adipiscing elit, sed do eiusmod tempor incididunt ut labore et dolore magna aliqua. Ut enim ad minim veniam, quis nostrud exercitation ullamco laboris nisi ut aliquip ex ea commodo consequat. Duis aute irure dolor in reprehenderit in voluptate velit esse cillum dolore eu fugiat nulla pariatur. Excepteur sint occaecat cupidatat non proident, sunt in culpa qui officia deserunt mollit anim id est laborum.&lt;/span&gt;&lt;br&gt;" style="text;html=1;align=left;verticalAlign=top;spacingTop=-4;fontSize=14;labelBackgroundColor=none;whiteSpace=wrap;" parent="1" vertex="1">
          <mxGeometry x="1490" y="886" width="449" height="124" as="geometry" />
        </mxCell>
        <mxCell id="k1J5Uft5zTIaOylSxwT3-19" value="&lt;span&gt;Lorem ipsum dolor sit amet, consectetur adipiscing elit, sed do eiusmod tempor incididunt ut labore et dolore magna aliqua. Ut enim ad minim veniam, quis nostrud exercitation ullamco laboris nisi ut aliquip ex ea commodo consequat. Duis aute irure dolor in reprehenderit in voluptate velit esse cillum dolore eu fugiat nulla pariatur. Excepteur sint occaecat cupidatat non proident, sunt in culpa qui officia deserunt mollit anim id est laborum.&lt;/span&gt;&lt;br&gt;" style="text;html=1;align=left;verticalAlign=top;spacingTop=-4;fontSize=14;labelBackgroundColor=none;whiteSpace=wrap;" parent="1" vertex="1">
          <mxGeometry x="1490" y="1005" width="449" height="115" as="geometry" />
        </mxCell>
        <mxCell id="k1J5Uft5zTIaOylSxwT3-22" value="10" style="rounded=1;whiteSpace=wrap;html=1;fillColor=#007CBD;strokeColor=none;fontColor=#FFFFFF;fontStyle=1;fontSize=22;labelBackgroundColor=none;" parent="1" vertex="1">
          <mxGeometry x="1397.5" y="1825.5" width="40" height="38" as="geometry" />
        </mxCell>
        <mxCell id="k1J5Uft5zTIaOylSxwT3-23" value="&lt;span&gt;Lorem ipsum dolor sit amet, consectetur adipiscing elit, sed do eiusmod tempor incididunt ut labore et dolore magna aliqua. Ut enim ad minim veniam, quis nostrud exercitation ullamco laboris nisi ut aliquip ex ea commodo consequat. Duis aute irure dolor in reprehenderit in voluptate velit esse cillum dolore eu fugiat nulla pariatur. Excepteur sint occaecat cupidatat non proident, sunt in culpa qui officia deserunt mollit anim id est laborum.&lt;/span&gt;&lt;br&gt;" style="text;html=1;align=left;verticalAlign=top;spacingTop=-4;fontSize=14;labelBackgroundColor=none;whiteSpace=wrap;" parent="1" vertex="1">
          <mxGeometry x="1491" y="1130.5" width="449" height="115" as="geometry" />
        </mxCell>
        <mxCell id="k1J5Uft5zTIaOylSxwT3-24" value="11" style="rounded=1;whiteSpace=wrap;html=1;fillColor=#007CBD;strokeColor=none;fontColor=#FFFFFF;fontStyle=1;fontSize=22;labelBackgroundColor=none;" parent="1" vertex="1">
          <mxGeometry x="1396" y="1945.5" width="40" height="38" as="geometry" />
        </mxCell>
        <mxCell id="k1J5Uft5zTIaOylSxwT3-25" value="&lt;span&gt;Lorem ipsum dolor sit amet, consectetur adipiscing elit, sed do eiusmod tempor incididunt ut labore et dolore magna aliqua. Ut enim ad minim veniam, quis nostrud exercitation ullamco laboris nisi ut aliquip ex ea commodo consequat. Duis aute irure dolor in reprehenderit in voluptate velit esse cillum dolore eu fugiat nulla pariatur. Excepteur sint occaecat cupidatat non proident, sunt in culpa qui officia deserunt mollit anim id est laborum.&lt;/span&gt;&lt;br&gt;" style="text;html=1;align=left;verticalAlign=top;spacingTop=-4;fontSize=14;labelBackgroundColor=none;whiteSpace=wrap;" parent="1" vertex="1">
          <mxGeometry x="1489.5" y="1250.5" width="449" height="115" as="geometry" />
        </mxCell>
        <mxCell id="jC54yRx2bqBDCMhFd0Ce-1" value="VPC-1" style="points=[[0,0],[0.25,0],[0.5,0],[0.75,0],[1,0],[1,0.25],[1,0.5],[1,0.75],[1,1],[0.75,1],[0.5,1],[0.25,1],[0,1],[0,0.75],[0,0.5],[0,0.25]];outlineConnect=0;gradientColor=none;html=1;whiteSpace=wrap;fontSize=12;fontStyle=0;container=1;pointerEvents=0;collapsible=0;recursiveResize=0;shape=mxgraph.aws4.group;grIcon=mxgraph.aws4.group_vpc;strokeColor=#248814;fillColor=none;verticalAlign=top;align=left;spacingLeft=30;fontColor=#AAB7B8;dashed=0;" vertex="1" parent="1">
          <mxGeometry x="157" y="280" width="130" height="130" as="geometry" />
        </mxCell>
        <mxCell id="jC54yRx2bqBDCMhFd0Ce-2" value="VPC-2" style="points=[[0,0],[0.25,0],[0.5,0],[0.75,0],[1,0],[1,0.25],[1,0.5],[1,0.75],[1,1],[0.75,1],[0.5,1],[0.25,1],[0,1],[0,0.75],[0,0.5],[0,0.25]];outlineConnect=0;gradientColor=none;html=1;whiteSpace=wrap;fontSize=12;fontStyle=0;container=1;pointerEvents=0;collapsible=0;recursiveResize=0;shape=mxgraph.aws4.group;grIcon=mxgraph.aws4.group_vpc;strokeColor=#248814;fillColor=none;verticalAlign=top;align=left;spacingLeft=30;fontColor=#AAB7B8;dashed=0;" vertex="1" parent="1">
          <mxGeometry x="685.5" y="280" width="130" height="130" as="geometry" />
        </mxCell>
        <mxCell id="jC54yRx2bqBDCMhFd0Ce-3" value="" style="endArrow=classic;startArrow=classic;html=1;rounded=0;exitX=1;exitY=0.5;exitDx=0;exitDy=0;entryX=0;entryY=0.5;entryDx=0;entryDy=0;entryPerimeter=0;" edge="1" parent="1" source="jC54yRx2bqBDCMhFd0Ce-1" target="jC54yRx2bqBDCMhFd0Ce-4">
          <mxGeometry width="50" height="50" relative="1" as="geometry">
            <mxPoint x="460" y="330" as="sourcePoint" />
            <mxPoint x="510" y="280" as="targetPoint" />
          </mxGeometry>
        </mxCell>
        <mxCell id="jC54yRx2bqBDCMhFd0Ce-4" value="" style="sketch=0;points=[[0,0,0],[0.25,0,0],[0.5,0,0],[0.75,0,0],[1,0,0],[0,1,0],[0.25,1,0],[0.5,1,0],[0.75,1,0],[1,1,0],[0,0.25,0],[0,0.5,0],[0,0.75,0],[1,0.25,0],[1,0.5,0],[1,0.75,0]];outlineConnect=0;fontColor=#232F3E;gradientColor=#945DF2;gradientDirection=north;fillColor=#5A30B5;strokeColor=#ffffff;dashed=0;verticalLabelPosition=bottom;verticalAlign=top;align=center;html=1;fontSize=12;fontStyle=0;aspect=fixed;shape=mxgraph.aws4.resourceIcon;resIcon=mxgraph.aws4.transit_gateway;" vertex="1" parent="1">
          <mxGeometry x="449" y="306" width="78" height="78" as="geometry" />
        </mxCell>
        <mxCell id="jC54yRx2bqBDCMhFd0Ce-5" value="" style="endArrow=classic;startArrow=classic;html=1;rounded=0;exitX=1;exitY=0.5;exitDx=0;exitDy=0;entryX=0;entryY=0.59;entryDx=0;entryDy=0;entryPerimeter=0;" edge="1" parent="1">
          <mxGeometry width="50" height="50" relative="1" as="geometry">
            <mxPoint x="523.5" y="344.49" as="sourcePoint" />
            <mxPoint x="685.5" y="345.51" as="targetPoint" />
          </mxGeometry>
        </mxCell>
        <mxCell id="jC54yRx2bqBDCMhFd0Ce-6" value="Transit Gateway" style="text;html=1;resizable=0;points=[];autosize=1;align=left;verticalAlign=top;spacingTop=-4;fontSize=16" vertex="1" parent="1">
          <mxGeometry x="418" y="276" width="140" height="30" as="geometry" />
        </mxCell>
        <mxCell id="jC54yRx2bqBDCMhFd0Ce-7" value="AWS Account" style="points=[[0,0],[0.25,0],[0.5,0],[0.75,0],[1,0],[1,0.25],[1,0.5],[1,0.75],[1,1],[0.75,1],[0.5,1],[0.25,1],[0,1],[0,0.75],[0,0.5],[0,0.25]];outlineConnect=0;gradientColor=none;html=1;whiteSpace=wrap;fontSize=12;fontStyle=0;container=1;pointerEvents=0;collapsible=0;recursiveResize=0;shape=mxgraph.aws4.group;grIcon=mxgraph.aws4.group_account;strokeColor=#CD2264;fillColor=none;verticalAlign=top;align=left;spacingLeft=30;fontColor=#CD2264;dashed=0;" vertex="1" parent="1">
          <mxGeometry x="475" y="675" width="130" height="130" as="geometry" />
        </mxCell>
        <mxCell id="jC54yRx2bqBDCMhFd0Ce-30" value="" style="sketch=0;points=[[0,0,0],[0.25,0,0],[0.5,0,0],[0.75,0,0],[1,0,0],[0,1,0],[0.25,1,0],[0.5,1,0],[0.75,1,0],[1,1,0],[0,0.25,0],[0,0.5,0],[0,0.75,0],[1,0.25,0],[1,0.5,0],[1,0.75,0]];outlineConnect=0;fontColor=#232F3E;gradientColor=#945DF2;gradientDirection=north;fillColor=#5A30B5;strokeColor=#ffffff;dashed=0;verticalLabelPosition=bottom;verticalAlign=top;align=center;html=1;fontSize=12;fontStyle=0;aspect=fixed;shape=mxgraph.aws4.resourceIcon;resIcon=mxgraph.aws4.transit_gateway;" vertex="1" parent="jC54yRx2bqBDCMhFd0Ce-7">
          <mxGeometry x="37.5" y="65" width="45" height="45" as="geometry" />
        </mxCell>
        <mxCell id="jC54yRx2bqBDCMhFd0Ce-8" value="Network" style="text;html=1;resizable=0;points=[];autosize=1;align=left;verticalAlign=top;spacingTop=-4;fontSize=16" vertex="1" parent="1">
          <mxGeometry x="475" y="650" width="80" height="30" as="geometry" />
        </mxCell>
        <mxCell id="jC54yRx2bqBDCMhFd0Ce-10" value="AWS Account" style="points=[[0,0],[0.25,0],[0.5,0],[0.75,0],[1,0],[1,0.25],[1,0.5],[1,0.75],[1,1],[0.75,1],[0.5,1],[0.25,1],[0,1],[0,0.75],[0,0.5],[0,0.25]];outlineConnect=0;gradientColor=none;html=1;whiteSpace=wrap;fontSize=12;fontStyle=0;container=1;pointerEvents=0;collapsible=0;recursiveResize=0;shape=mxgraph.aws4.group;grIcon=mxgraph.aws4.group_account;strokeColor=#CD2264;fillColor=none;verticalAlign=top;align=left;spacingLeft=30;fontColor=#CD2264;dashed=0;" vertex="1" parent="1">
          <mxGeometry x="254" y="490" width="106" height="110" as="geometry" />
        </mxCell>
        <mxCell id="jC54yRx2bqBDCMhFd0Ce-11" value="Security (Qualys Scan)" style="text;html=1;resizable=0;points=[];autosize=1;align=left;verticalAlign=top;spacingTop=-4;fontSize=16" vertex="1" parent="1">
          <mxGeometry x="279" y="460" width="190" height="30" as="geometry" />
        </mxCell>
        <mxCell id="jC54yRx2bqBDCMhFd0Ce-16" value="AWS Account" style="points=[[0,0],[0.25,0],[0.5,0],[0.75,0],[1,0],[1,0.25],[1,0.5],[1,0.75],[1,1],[0.75,1],[0.5,1],[0.25,1],[0,1],[0,0.75],[0,0.5],[0,0.25]];outlineConnect=0;gradientColor=none;html=1;whiteSpace=wrap;fontSize=12;fontStyle=0;container=1;pointerEvents=0;collapsible=0;recursiveResize=0;shape=mxgraph.aws4.group;grIcon=mxgraph.aws4.group_account;strokeColor=#CD2264;fillColor=none;verticalAlign=top;align=left;spacingLeft=30;fontColor=#CD2264;dashed=0;" vertex="1" parent="1">
          <mxGeometry x="480" y="490" width="120" height="110" as="geometry" />
        </mxCell>
        <mxCell id="jC54yRx2bqBDCMhFd0Ce-17" value="Monitoring" style="text;html=1;resizable=0;points=[];autosize=1;align=left;verticalAlign=top;spacingTop=-4;fontSize=16" vertex="1" parent="1">
          <mxGeometry x="505" y="460" width="100" height="30" as="geometry" />
        </mxCell>
        <mxCell id="jC54yRx2bqBDCMhFd0Ce-19" value="AWS Account" style="points=[[0,0],[0.25,0],[0.5,0],[0.75,0],[1,0],[1,0.25],[1,0.5],[1,0.75],[1,1],[0.75,1],[0.5,1],[0.25,1],[0,1],[0,0.75],[0,0.5],[0,0.25]];outlineConnect=0;gradientColor=none;html=1;whiteSpace=wrap;fontSize=12;fontStyle=0;container=1;pointerEvents=0;collapsible=0;recursiveResize=0;shape=mxgraph.aws4.group;grIcon=mxgraph.aws4.group_account;strokeColor=#CD2264;fillColor=none;verticalAlign=top;align=left;spacingLeft=30;fontColor=#CD2264;dashed=0;" vertex="1" parent="1">
          <mxGeometry x="80" y="916" width="280" height="204" as="geometry" />
        </mxCell>
        <mxCell id="jC54yRx2bqBDCMhFd0Ce-55" value="" style="sketch=0;points=[[0,0,0],[0.25,0,0],[0.5,0,0],[0.75,0,0],[1,0,0],[0,1,0],[0.25,1,0],[0.5,1,0],[0.75,1,0],[1,1,0],[0,0.25,0],[0,0.5,0],[0,0.75,0],[1,0.25,0],[1,0.5,0],[1,0.75,0]];outlineConnect=0;fontColor=#232F3E;gradientColor=#945DF2;gradientDirection=north;fillColor=#5A30B5;strokeColor=#ffffff;dashed=0;verticalLabelPosition=bottom;verticalAlign=top;align=center;html=1;fontSize=12;fontStyle=0;aspect=fixed;shape=mxgraph.aws4.resourceIcon;resIcon=mxgraph.aws4.cloudfront;" vertex="1" parent="jC54yRx2bqBDCMhFd0Ce-19">
          <mxGeometry x="121" y="166" width="38" height="38" as="geometry" />
        </mxCell>
        <mxCell id="jC54yRx2bqBDCMhFd0Ce-66" value="" style="outlineConnect=0;dashed=0;verticalLabelPosition=bottom;verticalAlign=top;align=center;html=1;shape=mxgraph.aws3.api_gateway;fillColor=#D9A741;gradientColor=none;" vertex="1" parent="jC54yRx2bqBDCMhFd0Ce-19">
          <mxGeometry x="45" y="94" width="45" height="47" as="geometry" />
        </mxCell>
        <mxCell id="jC54yRx2bqBDCMhFd0Ce-69" value="" style="outlineConnect=0;dashed=0;verticalLabelPosition=bottom;verticalAlign=top;align=center;html=1;shape=mxgraph.aws3.classic_load_balancer;fillColor=#F58534;gradientColor=none;" vertex="1" parent="jC54yRx2bqBDCMhFd0Ce-19">
          <mxGeometry x="200" y="97.5" width="40" height="40" as="geometry" />
        </mxCell>
        <mxCell id="jC54yRx2bqBDCMhFd0Ce-72" value="" style="endArrow=classic;startArrow=classic;html=1;rounded=0;entryX=0.5;entryY=1;entryDx=0;entryDy=0;entryPerimeter=0;exitX=0;exitY=0.5;exitDx=0;exitDy=0;exitPerimeter=0;" edge="1" parent="jC54yRx2bqBDCMhFd0Ce-19" source="jC54yRx2bqBDCMhFd0Ce-55" target="jC54yRx2bqBDCMhFd0Ce-66">
          <mxGeometry width="50" height="50" relative="1" as="geometry">
            <mxPoint x="130" y="164" as="sourcePoint" />
            <mxPoint x="440" y="224" as="targetPoint" />
          </mxGeometry>
        </mxCell>
        <mxCell id="jC54yRx2bqBDCMhFd0Ce-78" value="Services" style="rounded=0;whiteSpace=wrap;html=1;dashed=1;" vertex="1" parent="jC54yRx2bqBDCMhFd0Ce-19">
          <mxGeometry x="30" y="24" width="230" height="36" as="geometry" />
        </mxCell>
        <mxCell id="jC54yRx2bqBDCMhFd0Ce-79" value="" style="endArrow=classic;startArrow=classic;html=1;rounded=0;exitX=0.5;exitY=0;exitDx=0;exitDy=0;exitPerimeter=0;entryX=0.161;entryY=1.028;entryDx=0;entryDy=0;entryPerimeter=0;" edge="1" parent="jC54yRx2bqBDCMhFd0Ce-19" source="jC54yRx2bqBDCMhFd0Ce-66" target="jC54yRx2bqBDCMhFd0Ce-78">
          <mxGeometry width="50" height="50" relative="1" as="geometry">
            <mxPoint x="390" y="54" as="sourcePoint" />
            <mxPoint x="440" y="4" as="targetPoint" />
          </mxGeometry>
        </mxCell>
        <mxCell id="jC54yRx2bqBDCMhFd0Ce-81" value="" style="endArrow=classic;startArrow=classic;html=1;rounded=0;exitX=0.5;exitY=0;exitDx=0;exitDy=0;exitPerimeter=0;" edge="1" parent="jC54yRx2bqBDCMhFd0Ce-19">
          <mxGeometry width="50" height="50" relative="1" as="geometry">
            <mxPoint x="220" y="96.5" as="sourcePoint" />
            <mxPoint x="220" y="63" as="targetPoint" />
          </mxGeometry>
        </mxCell>
        <mxCell id="jC54yRx2bqBDCMhFd0Ce-20" value="Prod" style="text;html=1;resizable=0;points=[];autosize=1;align=left;verticalAlign=top;spacingTop=-4;fontSize=16" vertex="1" parent="1">
          <mxGeometry x="80" y="886" width="60" height="30" as="geometry" />
        </mxCell>
        <mxCell id="jC54yRx2bqBDCMhFd0Ce-21" value="AWS Account" style="points=[[0,0],[0.25,0],[0.5,0],[0.75,0],[1,0],[1,0.25],[1,0.5],[1,0.75],[1,1],[0.75,1],[0.5,1],[0.25,1],[0,1],[0,0.75],[0,0.5],[0,0.25]];outlineConnect=0;gradientColor=none;html=1;whiteSpace=wrap;fontSize=12;fontStyle=0;container=1;pointerEvents=0;collapsible=0;recursiveResize=0;shape=mxgraph.aws4.group;grIcon=mxgraph.aws4.group_account;strokeColor=#CD2264;fillColor=none;verticalAlign=top;align=left;spacingLeft=30;fontColor=#CD2264;dashed=0;" vertex="1" parent="1">
          <mxGeometry x="400" y="910" width="280" height="210" as="geometry" />
        </mxCell>
        <mxCell id="jC54yRx2bqBDCMhFd0Ce-61" value="" style="sketch=0;points=[[0,0,0],[0.25,0,0],[0.5,0,0],[0.75,0,0],[1,0,0],[0,1,0],[0.25,1,0],[0.5,1,0],[0.75,1,0],[1,1,0],[0,0.25,0],[0,0.5,0],[0,0.75,0],[1,0.25,0],[1,0.5,0],[1,0.75,0]];outlineConnect=0;fontColor=#232F3E;gradientColor=#945DF2;gradientDirection=north;fillColor=#5A30B5;strokeColor=#ffffff;dashed=0;verticalLabelPosition=bottom;verticalAlign=top;align=center;html=1;fontSize=12;fontStyle=0;aspect=fixed;shape=mxgraph.aws4.resourceIcon;resIcon=mxgraph.aws4.cloudfront;" vertex="1" parent="jC54yRx2bqBDCMhFd0Ce-21">
          <mxGeometry x="121" y="172" width="38" height="38" as="geometry" />
        </mxCell>
        <mxCell id="jC54yRx2bqBDCMhFd0Ce-67" value="" style="outlineConnect=0;dashed=0;verticalLabelPosition=bottom;verticalAlign=top;align=center;html=1;shape=mxgraph.aws3.api_gateway;fillColor=#D9A741;gradientColor=none;" vertex="1" parent="jC54yRx2bqBDCMhFd0Ce-21">
          <mxGeometry x="49" y="100" width="45" height="47" as="geometry" />
        </mxCell>
        <mxCell id="jC54yRx2bqBDCMhFd0Ce-70" value="" style="outlineConnect=0;dashed=0;verticalLabelPosition=bottom;verticalAlign=top;align=center;html=1;shape=mxgraph.aws3.classic_load_balancer;fillColor=#F58534;gradientColor=none;" vertex="1" parent="jC54yRx2bqBDCMhFd0Ce-21">
          <mxGeometry x="200" y="103.5" width="40" height="43.5" as="geometry" />
        </mxCell>
        <mxCell id="jC54yRx2bqBDCMhFd0Ce-74" value="" style="endArrow=classic;startArrow=classic;html=1;rounded=0;entryX=0.5;entryY=1;entryDx=0;entryDy=0;entryPerimeter=0;exitX=0;exitY=0.5;exitDx=0;exitDy=0;exitPerimeter=0;" edge="1" parent="jC54yRx2bqBDCMhFd0Ce-21">
          <mxGeometry width="50" height="50" relative="1" as="geometry">
            <mxPoint x="121" y="191" as="sourcePoint" />
            <mxPoint x="67.5" y="147" as="targetPoint" />
          </mxGeometry>
        </mxCell>
        <mxCell id="jC54yRx2bqBDCMhFd0Ce-75" value="" style="endArrow=classic;startArrow=classic;html=1;rounded=0;entryX=0.5;entryY=1;entryDx=0;entryDy=0;entryPerimeter=0;" edge="1" parent="jC54yRx2bqBDCMhFd0Ce-21">
          <mxGeometry width="50" height="50" relative="1" as="geometry">
            <mxPoint x="159" y="193.5" as="sourcePoint" />
            <mxPoint x="219" y="147" as="targetPoint" />
          </mxGeometry>
        </mxCell>
        <mxCell id="jC54yRx2bqBDCMhFd0Ce-82" value="Services" style="rounded=0;whiteSpace=wrap;html=1;dashed=1;" vertex="1" parent="jC54yRx2bqBDCMhFd0Ce-21">
          <mxGeometry x="30" y="27.5" width="230" height="36" as="geometry" />
        </mxCell>
        <mxCell id="jC54yRx2bqBDCMhFd0Ce-83" value="" style="endArrow=classic;startArrow=classic;html=1;rounded=0;exitX=0.5;exitY=0;exitDx=0;exitDy=0;exitPerimeter=0;entryX=0.161;entryY=1.028;entryDx=0;entryDy=0;entryPerimeter=0;" edge="1" parent="jC54yRx2bqBDCMhFd0Ce-21" target="jC54yRx2bqBDCMhFd0Ce-82">
          <mxGeometry width="50" height="50" relative="1" as="geometry">
            <mxPoint x="67.5" y="97.5" as="sourcePoint" />
            <mxPoint x="360" y="-908.5" as="targetPoint" />
          </mxGeometry>
        </mxCell>
        <mxCell id="jC54yRx2bqBDCMhFd0Ce-84" value="" style="endArrow=classic;startArrow=classic;html=1;rounded=0;exitX=0.5;exitY=0;exitDx=0;exitDy=0;exitPerimeter=0;" edge="1" parent="jC54yRx2bqBDCMhFd0Ce-21">
          <mxGeometry width="50" height="50" relative="1" as="geometry">
            <mxPoint x="220" y="100" as="sourcePoint" />
            <mxPoint x="220" y="66.5" as="targetPoint" />
          </mxGeometry>
        </mxCell>
        <mxCell id="jC54yRx2bqBDCMhFd0Ce-22" value="Nprd" style="text;html=1;resizable=0;points=[];autosize=1;align=left;verticalAlign=top;spacingTop=-4;fontSize=16" vertex="1" parent="1">
          <mxGeometry x="404" y="886" width="60" height="30" as="geometry" />
        </mxCell>
        <mxCell id="jC54yRx2bqBDCMhFd0Ce-23" value="AWS Account" style="points=[[0,0],[0.25,0],[0.5,0],[0.75,0],[1,0],[1,0.25],[1,0.5],[1,0.75],[1,1],[0.75,1],[0.5,1],[0.25,1],[0,1],[0,0.75],[0,0.5],[0,0.25]];outlineConnect=0;gradientColor=none;html=1;whiteSpace=wrap;fontSize=12;fontStyle=0;container=1;pointerEvents=0;collapsible=0;recursiveResize=0;shape=mxgraph.aws4.group;grIcon=mxgraph.aws4.group_account;strokeColor=#CD2264;fillColor=none;verticalAlign=top;align=left;spacingLeft=30;fontColor=#CD2264;dashed=0;" vertex="1" parent="1">
          <mxGeometry x="721" y="908" width="279" height="212" as="geometry" />
        </mxCell>
        <mxCell id="jC54yRx2bqBDCMhFd0Ce-62" value="" style="sketch=0;points=[[0,0,0],[0.25,0,0],[0.5,0,0],[0.75,0,0],[1,0,0],[0,1,0],[0.25,1,0],[0.5,1,0],[0.75,1,0],[1,1,0],[0,0.25,0],[0,0.5,0],[0,0.75,0],[1,0.25,0],[1,0.5,0],[1,0.75,0]];outlineConnect=0;fontColor=#232F3E;gradientColor=#945DF2;gradientDirection=north;fillColor=#5A30B5;strokeColor=#ffffff;dashed=0;verticalLabelPosition=bottom;verticalAlign=top;align=center;html=1;fontSize=12;fontStyle=0;aspect=fixed;shape=mxgraph.aws4.resourceIcon;resIcon=mxgraph.aws4.cloudfront;" vertex="1" parent="jC54yRx2bqBDCMhFd0Ce-23">
          <mxGeometry x="120.5" y="174" width="38" height="38" as="geometry" />
        </mxCell>
        <mxCell id="jC54yRx2bqBDCMhFd0Ce-68" value="" style="outlineConnect=0;dashed=0;verticalLabelPosition=bottom;verticalAlign=top;align=center;html=1;shape=mxgraph.aws3.api_gateway;fillColor=#D9A741;gradientColor=none;" vertex="1" parent="jC54yRx2bqBDCMhFd0Ce-23">
          <mxGeometry x="43" y="102" width="45" height="47" as="geometry" />
        </mxCell>
        <mxCell id="jC54yRx2bqBDCMhFd0Ce-71" value="" style="outlineConnect=0;dashed=0;verticalLabelPosition=bottom;verticalAlign=top;align=center;html=1;shape=mxgraph.aws3.classic_load_balancer;fillColor=#F58534;gradientColor=none;" vertex="1" parent="jC54yRx2bqBDCMhFd0Ce-23">
          <mxGeometry x="199" y="109" width="40" height="40" as="geometry" />
        </mxCell>
        <mxCell id="jC54yRx2bqBDCMhFd0Ce-76" value="" style="endArrow=classic;startArrow=classic;html=1;rounded=0;entryX=0.5;entryY=1;entryDx=0;entryDy=0;entryPerimeter=0;exitX=0;exitY=0.5;exitDx=0;exitDy=0;exitPerimeter=0;" edge="1" parent="jC54yRx2bqBDCMhFd0Ce-23">
          <mxGeometry width="50" height="50" relative="1" as="geometry">
            <mxPoint x="120.5" y="193" as="sourcePoint" />
            <mxPoint x="67" y="149" as="targetPoint" />
          </mxGeometry>
        </mxCell>
        <mxCell id="jC54yRx2bqBDCMhFd0Ce-77" value="" style="endArrow=classic;startArrow=classic;html=1;rounded=0;entryX=0.5;entryY=1;entryDx=0;entryDy=0;entryPerimeter=0;" edge="1" parent="jC54yRx2bqBDCMhFd0Ce-23">
          <mxGeometry width="50" height="50" relative="1" as="geometry">
            <mxPoint x="158.5" y="195.5" as="sourcePoint" />
            <mxPoint x="218.5" y="149" as="targetPoint" />
          </mxGeometry>
        </mxCell>
        <mxCell id="jC54yRx2bqBDCMhFd0Ce-85" value="Services" style="rounded=0;whiteSpace=wrap;html=1;dashed=1;" vertex="1" parent="jC54yRx2bqBDCMhFd0Ce-23">
          <mxGeometry x="24.5" y="29.5" width="230" height="36" as="geometry" />
        </mxCell>
        <mxCell id="jC54yRx2bqBDCMhFd0Ce-86" value="" style="endArrow=classic;startArrow=classic;html=1;rounded=0;exitX=0.5;exitY=0;exitDx=0;exitDy=0;exitPerimeter=0;entryX=0.161;entryY=1.028;entryDx=0;entryDy=0;entryPerimeter=0;" edge="1" parent="jC54yRx2bqBDCMhFd0Ce-23" target="jC54yRx2bqBDCMhFd0Ce-85">
          <mxGeometry width="50" height="50" relative="1" as="geometry">
            <mxPoint x="62" y="99.5" as="sourcePoint" />
            <mxPoint x="-45.5" y="-1816.5" as="targetPoint" />
          </mxGeometry>
        </mxCell>
        <mxCell id="jC54yRx2bqBDCMhFd0Ce-87" value="" style="endArrow=classic;startArrow=classic;html=1;rounded=0;exitX=0.5;exitY=0;exitDx=0;exitDy=0;exitPerimeter=0;" edge="1" parent="jC54yRx2bqBDCMhFd0Ce-23">
          <mxGeometry width="50" height="50" relative="1" as="geometry">
            <mxPoint x="214.5" y="102" as="sourcePoint" />
            <mxPoint x="214.5" y="68.5" as="targetPoint" />
          </mxGeometry>
        </mxCell>
        <mxCell id="jC54yRx2bqBDCMhFd0Ce-24" value="Dev" style="text;html=1;resizable=0;points=[];autosize=1;align=left;verticalAlign=top;spacingTop=-4;fontSize=16" vertex="1" parent="1">
          <mxGeometry x="960" y="884" width="50" height="30" as="geometry" />
        </mxCell>
        <mxCell id="jC54yRx2bqBDCMhFd0Ce-25" value="" style="endArrow=classic;startArrow=classic;html=1;rounded=0;exitX=0.5;exitY=0;exitDx=0;exitDy=0;entryX=0;entryY=1;entryDx=0;entryDy=0;" edge="1" parent="1" source="jC54yRx2bqBDCMhFd0Ce-19" target="jC54yRx2bqBDCMhFd0Ce-7">
          <mxGeometry width="50" height="50" relative="1" as="geometry">
            <mxPoint x="650" y="720" as="sourcePoint" />
            <mxPoint x="670" y="680" as="targetPoint" />
          </mxGeometry>
        </mxCell>
        <mxCell id="jC54yRx2bqBDCMhFd0Ce-26" value="" style="endArrow=classic;startArrow=classic;html=1;rounded=0;entryX=0.5;entryY=1;entryDx=0;entryDy=0;exitX=0.5;exitY=0;exitDx=0;exitDy=0;" edge="1" parent="1" source="jC54yRx2bqBDCMhFd0Ce-21" target="jC54yRx2bqBDCMhFd0Ce-7">
          <mxGeometry width="50" height="50" relative="1" as="geometry">
            <mxPoint x="535" y="910" as="sourcePoint" />
            <mxPoint x="480" y="805.9375" as="targetPoint" />
          </mxGeometry>
        </mxCell>
        <mxCell id="jC54yRx2bqBDCMhFd0Ce-27" value="" style="endArrow=classic;startArrow=classic;html=1;rounded=0;entryX=1;entryY=1;entryDx=0;entryDy=0;exitX=0.5;exitY=0;exitDx=0;exitDy=0;" edge="1" parent="1" source="jC54yRx2bqBDCMhFd0Ce-23" target="jC54yRx2bqBDCMhFd0Ce-7">
          <mxGeometry width="50" height="50" relative="1" as="geometry">
            <mxPoint x="545" y="920" as="sourcePoint" />
            <mxPoint x="545" y="815" as="targetPoint" />
          </mxGeometry>
        </mxCell>
        <mxCell id="jC54yRx2bqBDCMhFd0Ce-28" value="" style="endArrow=classic;startArrow=classic;html=1;rounded=0;exitX=0.5;exitY=1;exitDx=0;exitDy=0;entryX=0;entryY=0;entryDx=0;entryDy=0;" edge="1" parent="1" source="jC54yRx2bqBDCMhFd0Ce-10" target="jC54yRx2bqBDCMhFd0Ce-7">
          <mxGeometry width="50" height="50" relative="1" as="geometry">
            <mxPoint x="337" y="929" as="sourcePoint" />
            <mxPoint x="480" y="805.9375" as="targetPoint" />
          </mxGeometry>
        </mxCell>
        <mxCell id="jC54yRx2bqBDCMhFd0Ce-29" value="" style="endArrow=classic;startArrow=classic;html=1;rounded=0;exitX=0.5;exitY=1;exitDx=0;exitDy=0;entryX=0.5;entryY=0;entryDx=0;entryDy=0;" edge="1" parent="1" source="jC54yRx2bqBDCMhFd0Ce-16" target="jC54yRx2bqBDCMhFd0Ce-7">
          <mxGeometry width="50" height="50" relative="1" as="geometry">
            <mxPoint x="329" y="630" as="sourcePoint" />
            <mxPoint x="480" y="685" as="targetPoint" />
          </mxGeometry>
        </mxCell>
        <mxCell id="jC54yRx2bqBDCMhFd0Ce-31" value="TGW" style="text;html=1;align=center;verticalAlign=middle;resizable=0;points=[];autosize=1;strokeColor=none;fillColor=none;" vertex="1" parent="1">
          <mxGeometry x="505" y="715" width="50" height="30" as="geometry" />
        </mxCell>
        <mxCell id="jC54yRx2bqBDCMhFd0Ce-32" value="" style="sketch=0;outlineConnect=0;fontColor=#232F3E;gradientColor=none;fillColor=#4D27AA;strokeColor=none;dashed=0;verticalLabelPosition=bottom;verticalAlign=top;align=center;html=1;fontSize=12;fontStyle=0;aspect=fixed;pointerEvents=1;shape=mxgraph.aws4.transit_gateway_attachment;" vertex="1" parent="1">
          <mxGeometry x="315" y="818" width="44" height="44" as="geometry" />
        </mxCell>
        <mxCell id="jC54yRx2bqBDCMhFd0Ce-33" value="TGW-A" style="text;html=1;align=center;verticalAlign=middle;resizable=0;points=[];autosize=1;strokeColor=none;fillColor=none;" vertex="1" parent="1">
          <mxGeometry x="307" y="794" width="60" height="30" as="geometry" />
        </mxCell>
        <mxCell id="jC54yRx2bqBDCMhFd0Ce-34" value="" style="sketch=0;outlineConnect=0;fontColor=#232F3E;gradientColor=none;fillColor=#4D27AA;strokeColor=none;dashed=0;verticalLabelPosition=bottom;verticalAlign=top;align=center;html=1;fontSize=12;fontStyle=0;aspect=fixed;pointerEvents=1;shape=mxgraph.aws4.transit_gateway_attachment;" vertex="1" parent="1">
          <mxGeometry x="494" y="840" width="40" height="40" as="geometry" />
        </mxCell>
        <mxCell id="jC54yRx2bqBDCMhFd0Ce-35" value="TGW-A" style="text;html=1;align=center;verticalAlign=middle;resizable=0;points=[];autosize=1;strokeColor=none;fillColor=none;" vertex="1" parent="1">
          <mxGeometry x="480" y="818" width="60" height="30" as="geometry" />
        </mxCell>
        <mxCell id="jC54yRx2bqBDCMhFd0Ce-40" value="" style="sketch=0;outlineConnect=0;fontColor=#232F3E;gradientColor=none;fillColor=#4D27AA;strokeColor=none;dashed=0;verticalLabelPosition=bottom;verticalAlign=top;align=center;html=1;fontSize=12;fontStyle=0;aspect=fixed;pointerEvents=1;shape=mxgraph.aws4.transit_gateway_attachment;" vertex="1" parent="1">
          <mxGeometry x="734" y="820" width="40" height="40" as="geometry" />
        </mxCell>
        <mxCell id="jC54yRx2bqBDCMhFd0Ce-41" value="TGW-A" style="text;html=1;align=center;verticalAlign=middle;resizable=0;points=[];autosize=1;strokeColor=none;fillColor=none;" vertex="1" parent="1">
          <mxGeometry x="724" y="794" width="60" height="30" as="geometry" />
        </mxCell>
        <mxCell id="jC54yRx2bqBDCMhFd0Ce-42" value="" style="sketch=0;outlineConnect=0;fontColor=#232F3E;gradientColor=none;fillColor=#4D27AA;strokeColor=none;dashed=0;verticalLabelPosition=bottom;verticalAlign=top;align=center;html=1;fontSize=12;fontStyle=0;aspect=fixed;pointerEvents=1;shape=mxgraph.aws4.transit_gateway_attachment;" vertex="1" parent="1">
          <mxGeometry x="680" y="630" width="40" height="40" as="geometry" />
        </mxCell>
        <mxCell id="jC54yRx2bqBDCMhFd0Ce-43" value="TGW-A" style="text;html=1;align=center;verticalAlign=middle;resizable=0;points=[];autosize=1;strokeColor=none;fillColor=none;" vertex="1" parent="1">
          <mxGeometry x="674" y="662" width="60" height="30" as="geometry" />
        </mxCell>
        <mxCell id="jC54yRx2bqBDCMhFd0Ce-44" value="" style="sketch=0;outlineConnect=0;fontColor=#232F3E;gradientColor=none;fillColor=#4D27AA;strokeColor=none;dashed=0;verticalLabelPosition=bottom;verticalAlign=top;align=center;html=1;fontSize=12;fontStyle=0;aspect=fixed;pointerEvents=1;shape=mxgraph.aws4.transit_gateway_attachment;" vertex="1" parent="1">
          <mxGeometry x="364" y="662" width="40" height="40" as="geometry" />
        </mxCell>
        <mxCell id="jC54yRx2bqBDCMhFd0Ce-45" value="TGW-A" style="text;html=1;align=center;verticalAlign=middle;resizable=0;points=[];autosize=1;strokeColor=none;fillColor=none;" vertex="1" parent="1">
          <mxGeometry x="350" y="640" width="60" height="30" as="geometry" />
        </mxCell>
        <mxCell id="jC54yRx2bqBDCMhFd0Ce-51" value="" style="rounded=0;whiteSpace=wrap;html=1;" vertex="1" parent="1">
          <mxGeometry x="375" y="1417" width="330" height="99" as="geometry" />
        </mxCell>
        <mxCell id="jC54yRx2bqBDCMhFd0Ce-46" value="" style="outlineConnect=0;dashed=0;verticalLabelPosition=bottom;verticalAlign=top;align=center;html=1;shape=mxgraph.aws3.mobile_client;fillColor=#D2D3D3;gradientColor=none;" vertex="1" parent="1">
          <mxGeometry x="433" y="1435" width="40.5" height="63" as="geometry" />
        </mxCell>
        <mxCell id="jC54yRx2bqBDCMhFd0Ce-48" value="" style="aspect=fixed;perimeter=ellipsePerimeter;html=1;align=center;shadow=0;dashed=0;fontColor=#4277BB;labelBackgroundColor=#ffffff;fontSize=12;spacingTop=3;image;image=img/lib/ibm/infrastructure/dashboard.svg;" vertex="1" parent="1">
          <mxGeometry x="520" y="1438" width="60" height="60" as="geometry" />
        </mxCell>
        <mxCell id="jC54yRx2bqBDCMhFd0Ce-49" value="" style="sketch=0;html=1;dashed=0;whitespace=wrap;fillColor=#2875E2;strokeColor=#ffffff;points=[[0.005,0.63,0],[0.1,0.2,0],[0.9,0.2,0],[0.5,0,0],[0.995,0.63,0],[0.72,0.99,0],[0.5,1,0],[0.28,0.99,0]];shape=mxgraph.kubernetes.icon;prIcon=api" vertex="1" parent="1">
          <mxGeometry x="623" y="1444" width="50" height="48" as="geometry" />
        </mxCell>
        <mxCell id="jC54yRx2bqBDCMhFd0Ce-52" value="Clients" style="text;html=1;align=center;verticalAlign=middle;resizable=0;points=[];autosize=1;strokeColor=none;fillColor=none;" vertex="1" parent="1">
          <mxGeometry x="370" y="1511" width="60" height="30" as="geometry" />
        </mxCell>
        <mxCell id="jC54yRx2bqBDCMhFd0Ce-53" value="" style="outlineConnect=0;dashed=0;verticalLabelPosition=bottom;verticalAlign=top;align=center;html=1;shape=mxgraph.aws3.route_53;fillColor=#F58536;gradientColor=none;" vertex="1" parent="1">
          <mxGeometry x="510" y="1310" width="60" height="50" as="geometry" />
        </mxCell>
        <mxCell id="jC54yRx2bqBDCMhFd0Ce-54" value="" style="endArrow=classic;startArrow=classic;html=1;rounded=0;exitX=0.5;exitY=0;exitDx=0;exitDy=0;entryX=0.5;entryY=1;entryDx=0;entryDy=0;entryPerimeter=0;" edge="1" parent="1" source="jC54yRx2bqBDCMhFd0Ce-51" target="jC54yRx2bqBDCMhFd0Ce-53">
          <mxGeometry width="50" height="50" relative="1" as="geometry">
            <mxPoint x="470" y="1300" as="sourcePoint" />
            <mxPoint x="520" y="1250" as="targetPoint" />
          </mxGeometry>
        </mxCell>
        <mxCell id="jC54yRx2bqBDCMhFd0Ce-63" value="" style="endArrow=classic;startArrow=classic;html=1;rounded=0;entryX=0.5;entryY=1;entryDx=0;entryDy=0;entryPerimeter=0;" edge="1" parent="1" source="jC54yRx2bqBDCMhFd0Ce-53">
          <mxGeometry width="50" height="50" relative="1" as="geometry">
            <mxPoint x="219.5" y="1177" as="sourcePoint" />
            <mxPoint x="219.5" y="1120" as="targetPoint" />
          </mxGeometry>
        </mxCell>
        <mxCell id="jC54yRx2bqBDCMhFd0Ce-64" value="" style="endArrow=classic;startArrow=classic;html=1;rounded=0;entryX=0.5;entryY=1;entryDx=0;entryDy=0;" edge="1" parent="1" source="jC54yRx2bqBDCMhFd0Ce-53" target="jC54yRx2bqBDCMhFd0Ce-21">
          <mxGeometry width="50" height="50" relative="1" as="geometry">
            <mxPoint x="540" y="1300" as="sourcePoint" />
            <mxPoint x="229.5" y="1130" as="targetPoint" />
          </mxGeometry>
        </mxCell>
        <mxCell id="jC54yRx2bqBDCMhFd0Ce-65" value="" style="endArrow=classic;startArrow=classic;html=1;rounded=0;entryX=0.5;entryY=1;entryDx=0;entryDy=0;" edge="1" parent="1" source="jC54yRx2bqBDCMhFd0Ce-53" target="jC54yRx2bqBDCMhFd0Ce-23">
          <mxGeometry width="50" height="50" relative="1" as="geometry">
            <mxPoint x="554.4186046511627" y="1320" as="sourcePoint" />
            <mxPoint x="550" y="1130" as="targetPoint" />
          </mxGeometry>
        </mxCell>
        <mxCell id="jC54yRx2bqBDCMhFd0Ce-73" value="" style="endArrow=classic;startArrow=classic;html=1;rounded=0;entryX=0.5;entryY=1;entryDx=0;entryDy=0;entryPerimeter=0;" edge="1" parent="1" target="jC54yRx2bqBDCMhFd0Ce-69">
          <mxGeometry width="50" height="50" relative="1" as="geometry">
            <mxPoint x="240" y="1100" as="sourcePoint" />
            <mxPoint x="157.5" y="1067" as="targetPoint" />
          </mxGeometry>
        </mxCell>
        <mxCell id="jC54yRx2bqBDCMhFd0Ce-88" value="prd.cisco.com" style="text;html=1;align=center;verticalAlign=middle;resizable=0;points=[];autosize=1;strokeColor=none;fillColor=none;rotation=30;" vertex="1" parent="1">
          <mxGeometry x="279" y="1190" width="100" height="30" as="geometry" />
        </mxCell>
        <mxCell id="jC54yRx2bqBDCMhFd0Ce-89" value="nprd.cisco.com" style="text;html=1;align=center;verticalAlign=middle;resizable=0;points=[];autosize=1;strokeColor=none;fillColor=none;flipV=0;rotation=90;" vertex="1" parent="1">
          <mxGeometry x="480" y="1201" width="100" height="30" as="geometry" />
        </mxCell>
        <mxCell id="jC54yRx2bqBDCMhFd0Ce-90" value="dev.cisco.com" style="text;html=1;align=center;verticalAlign=middle;resizable=0;points=[];autosize=1;strokeColor=none;fillColor=none;rotation=-30;" vertex="1" parent="1">
          <mxGeometry x="693" y="1171" width="100" height="30" as="geometry" />
        </mxCell>
        <mxCell id="jC54yRx2bqBDCMhFd0Ce-91" value="VPC" style="points=[[0,0],[0.25,0],[0.5,0],[0.75,0],[1,0],[1,0.25],[1,0.5],[1,0.75],[1,1],[0.75,1],[0.5,1],[0.25,1],[0,1],[0,0.75],[0,0.5],[0,0.25]];outlineConnect=0;gradientColor=none;html=1;whiteSpace=wrap;fontSize=12;fontStyle=0;container=1;pointerEvents=0;collapsible=0;recursiveResize=0;shape=mxgraph.aws4.group;grIcon=mxgraph.aws4.group_vpc;strokeColor=#248814;fillColor=none;verticalAlign=top;align=left;spacingLeft=30;fontColor=#AAB7B8;dashed=0;" vertex="1" parent="1">
          <mxGeometry x="140" y="1620" width="1550" height="930" as="geometry" />
        </mxCell>
        <mxCell id="jC54yRx2bqBDCMhFd0Ce-96" value="" style="rounded=1;arcSize=10;dashed=1;strokeColor=#F59D56;fillColor=none;gradientColor=none;dashPattern=8 4;strokeWidth=2;" vertex="1" parent="jC54yRx2bqBDCMhFd0Ce-91">
          <mxGeometry x="800" y="70" width="293" height="646" as="geometry" />
        </mxCell>
        <mxCell id="jC54yRx2bqBDCMhFd0Ce-97" value="" style="rounded=1;arcSize=10;dashed=1;strokeColor=#F59D56;fillColor=none;gradientColor=none;dashPattern=8 4;strokeWidth=2;" vertex="1" parent="jC54yRx2bqBDCMhFd0Ce-91">
          <mxGeometry x="1200" y="60" width="293" height="646" as="geometry" />
        </mxCell>
        <mxCell id="jC54yRx2bqBDCMhFd0Ce-110" value="" style="group" vertex="1" connectable="0" parent="jC54yRx2bqBDCMhFd0Ce-91">
          <mxGeometry x="140" y="80" width="620" height="810" as="geometry" />
        </mxCell>
        <mxCell id="jC54yRx2bqBDCMhFd0Ce-92" value="" style="rounded=1;arcSize=10;dashed=1;strokeColor=#F59D56;fillColor=none;gradientColor=none;dashPattern=8 4;strokeWidth=2;" vertex="1" parent="jC54yRx2bqBDCMhFd0Ce-110">
          <mxGeometry width="620" height="810" as="geometry" />
        </mxCell>
        <mxCell id="jC54yRx2bqBDCMhFd0Ce-161" value="" style="group" vertex="1" connectable="0" parent="jC54yRx2bqBDCMhFd0Ce-110">
          <mxGeometry x="24.26707597851113" y="546.2790697674418" width="546.7229470452802" height="207.20930232558138" as="geometry" />
        </mxCell>
        <mxCell id="jC54yRx2bqBDCMhFd0Ce-109" value="Private subnet" style="points=[[0,0],[0.25,0],[0.5,0],[0.75,0],[1,0],[1,0.25],[1,0.5],[1,0.75],[1,1],[0.75,1],[0.5,1],[0.25,1],[0,1],[0,0.75],[0,0.5],[0,0.25]];outlineConnect=0;gradientColor=none;html=1;whiteSpace=wrap;fontSize=12;fontStyle=0;container=1;pointerEvents=0;collapsible=0;recursiveResize=0;shape=mxgraph.aws4.group;grIcon=mxgraph.aws4.group_security_group;grStroke=0;strokeColor=#147EBA;fillColor=#E6F2F8;verticalAlign=top;align=left;spacingLeft=30;fontColor=#147EBA;dashed=0;" vertex="1" parent="jC54yRx2bqBDCMhFd0Ce-161">
          <mxGeometry width="546.7229470452802" height="207.20930232558138" as="geometry" />
        </mxCell>
        <mxCell id="jC54yRx2bqBDCMhFd0Ce-140" value="" style="sketch=0;points=[[0,0,0],[0.25,0,0],[0.5,0,0],[0.75,0,0],[1,0,0],[0,1,0],[0.25,1,0],[0.5,1,0],[0.75,1,0],[1,1,0],[0,0.25,0],[0,0.5,0],[0,0.75,0],[1,0.25,0],[1,0.5,0],[1,0.75,0]];outlineConnect=0;fontColor=#232F3E;gradientColor=#4D72F3;gradientDirection=north;fillColor=#3334B9;strokeColor=#ffffff;dashed=0;verticalLabelPosition=bottom;verticalAlign=top;align=center;html=1;fontSize=12;fontStyle=0;aspect=fixed;shape=mxgraph.aws4.resourceIcon;resIcon=mxgraph.aws4.aurora;" vertex="1" parent="jC54yRx2bqBDCMhFd0Ce-161">
          <mxGeometry x="43.30478788477466" y="41.11295681063123" width="46.95017631175692" height="46.95017631175692" as="geometry" />
        </mxCell>
        <mxCell id="jC54yRx2bqBDCMhFd0Ce-143" value="" style="outlineConnect=0;dashed=0;verticalLabelPosition=bottom;verticalAlign=top;align=center;html=1;shape=mxgraph.aws3.elasticsearch_service;fillColor=#F58534;gradientColor=none;" vertex="1" parent="jC54yRx2bqBDCMhFd0Ce-161">
          <mxGeometry x="288.6985858984978" y="35.56270764119601" width="49.16897791083791" height="63.108388704318926" as="geometry" />
        </mxCell>
        <mxCell id="jC54yRx2bqBDCMhFd0Ce-145" value="" style="outlineConnect=0;dashed=0;verticalLabelPosition=bottom;verticalAlign=top;align=center;html=1;shape=mxgraph.aws3.lambda;fillColor=#F58534;gradientColor=none;" vertex="1" parent="jC54yRx2bqBDCMhFd0Ce-161">
          <mxGeometry x="465.5264697613277" y="44.19642857142857" width="43.75587942524107" height="49.33554817275747" as="geometry" />
        </mxCell>
        <mxCell id="jC54yRx2bqBDCMhFd0Ce-150" value="Aurora" style="text;html=1;strokeColor=none;fillColor=none;align=center;verticalAlign=middle;whiteSpace=wrap;rounded=0;dashed=1;" vertex="1" parent="jC54yRx2bqBDCMhFd0Ce-161">
          <mxGeometry x="43.30478788477466" y="91.27076411960132" width="54.130984855968336" height="24.667774086378735" as="geometry" />
        </mxCell>
        <mxCell id="jC54yRx2bqBDCMhFd0Ce-151" value="MSK" style="text;html=1;strokeColor=none;fillColor=none;align=center;verticalAlign=middle;whiteSpace=wrap;rounded=0;dashed=1;" vertex="1" parent="jC54yRx2bqBDCMhFd0Ce-161">
          <mxGeometry x="205.69774245267968" y="91.27076411960132" width="54.130984855968336" height="24.667774086378735" as="geometry" />
        </mxCell>
        <mxCell id="jC54yRx2bqBDCMhFd0Ce-152" value="ElasticCache" style="text;html=1;strokeColor=none;fillColor=none;align=center;verticalAlign=middle;whiteSpace=wrap;rounded=0;dashed=1;" vertex="1" parent="jC54yRx2bqBDCMhFd0Ce-161">
          <mxGeometry x="123.14799054732796" y="91.27076411960132" width="54.130984855968336" height="24.667774086378735" as="geometry" />
        </mxCell>
        <mxCell id="jC54yRx2bqBDCMhFd0Ce-153" value="EMR" style="text;html=1;strokeColor=none;fillColor=none;align=center;verticalAlign=middle;whiteSpace=wrap;rounded=0;dashed=1;" vertex="1" parent="jC54yRx2bqBDCMhFd0Ce-161">
          <mxGeometry x="382.97671785597595" y="91.27076411960132" width="54.130984855968336" height="24.667774086378735" as="geometry" />
        </mxCell>
        <mxCell id="jC54yRx2bqBDCMhFd0Ce-154" value="ElasticSearch" style="text;html=1;strokeColor=none;fillColor=none;align=center;verticalAlign=middle;whiteSpace=wrap;rounded=0;dashed=1;" vertex="1" parent="jC54yRx2bqBDCMhFd0Ce-161">
          <mxGeometry x="288.6985858984978" y="91.27076411960132" width="54.130984855968336" height="24.667774086378735" as="geometry" />
        </mxCell>
        <mxCell id="jC54yRx2bqBDCMhFd0Ce-141" value="" style="outlineConnect=0;dashed=0;verticalLabelPosition=bottom;verticalAlign=top;align=center;html=1;shape=mxgraph.aws3.elasticache;fillColor=#2E73B8;gradientColor=none;" vertex="1" parent="jC54yRx2bqBDCMhFd0Ce-161">
          <mxGeometry x="121.34362438546236" y="32.89036544850499" width="55.935351017833945" height="65.78073089700997" as="geometry" />
        </mxCell>
        <mxCell id="jC54yRx2bqBDCMhFd0Ce-142" value="" style="sketch=0;points=[[0,0,0],[0.25,0,0],[0.5,0,0],[0.75,0,0],[1,0,0],[0,1,0],[0.25,1,0],[0.5,1,0],[0.75,1,0],[1,1,0],[0,0.25,0],[0,0.5,0],[0,0.75,0],[1,0.25,0],[1,0.5,0],[1,0.75,0]];outlineConnect=0;fontColor=#232F3E;gradientColor=#945DF2;gradientDirection=north;fillColor=#5A30B5;strokeColor=#ffffff;dashed=0;verticalLabelPosition=bottom;verticalAlign=top;align=center;html=1;fontSize=12;fontStyle=0;aspect=fixed;shape=mxgraph.aws4.resourceIcon;resIcon=mxgraph.aws4.managed_streaming_for_kafka;" vertex="1" parent="jC54yRx2bqBDCMhFd0Ce-161">
          <mxGeometry x="205.69774245267968" y="41.11295681063123" width="52.818948350726544" height="52.818948350726544" as="geometry" />
        </mxCell>
        <mxCell id="jC54yRx2bqBDCMhFd0Ce-144" value="" style="outlineConnect=0;dashed=0;verticalLabelPosition=bottom;verticalAlign=top;align=center;html=1;shape=mxgraph.aws3.emr;fillColor=#F58534;gradientColor=none;" vertex="1" parent="jC54yRx2bqBDCMhFd0Ce-161">
          <mxGeometry x="378.91689399177835" y="38.34194352159468" width="58.19080872016596" height="57.55813953488372" as="geometry" />
        </mxCell>
        <mxCell id="jC54yRx2bqBDCMhFd0Ce-158" value="" style="sketch=0;points=[[0,0,0],[0.25,0,0],[0.5,0,0],[0.75,0,0],[1,0,0],[0,1,0],[0.25,1,0],[0.5,1,0],[0.75,1,0],[1,1,0],[0,0.25,0],[0,0.5,0],[0,0.75,0],[1,0.25,0],[1,0.5,0],[1,0.75,0]];outlineConnect=0;fontColor=#232F3E;gradientColor=#4D72F3;gradientDirection=north;fillColor=#3334B9;strokeColor=#ffffff;dashed=0;verticalLabelPosition=bottom;verticalAlign=top;align=center;html=1;fontSize=12;fontStyle=0;aspect=fixed;shape=mxgraph.aws4.resourceIcon;resIcon=mxgraph.aws4.dynamodb;" vertex="1" parent="jC54yRx2bqBDCMhFd0Ce-161">
          <mxGeometry x="46.011337127573086" y="115.93853820598007" width="46.16767337322764" height="46.16767337322764" as="geometry" />
        </mxCell>
        <mxCell id="jC54yRx2bqBDCMhFd0Ce-159" value="DynamoDB" style="text;html=1;strokeColor=none;fillColor=none;align=center;verticalAlign=middle;whiteSpace=wrap;rounded=0;dashed=1;" vertex="1" parent="jC54yRx2bqBDCMhFd0Ce-161">
          <mxGeometry x="46.011337127573086" y="164.45182724252493" width="54.130984855968336" height="24.667774086378735" as="geometry" />
        </mxCell>
        <mxCell id="jC54yRx2bqBDCMhFd0Ce-170" value="Lambda" style="text;html=1;strokeColor=none;fillColor=none;align=center;verticalAlign=middle;whiteSpace=wrap;rounded=0;dashed=1;" vertex="1" parent="jC54yRx2bqBDCMhFd0Ce-161">
          <mxGeometry x="460.33634947531596" y="93.5312292358805" width="54.130984855968336" height="24.667774086378735" as="geometry" />
        </mxCell>
        <mxCell id="jC54yRx2bqBDCMhFd0Ce-107" value="Public subnet" style="points=[[0,0],[0.25,0],[0.5,0],[0.75,0],[1,0],[1,0.25],[1,0.5],[1,0.75],[1,1],[0.75,1],[0.5,1],[0.25,1],[0,1],[0,0.75],[0,0.5],[0,0.25]];outlineConnect=0;gradientColor=none;html=1;whiteSpace=wrap;fontSize=12;fontStyle=0;container=0;pointerEvents=0;collapsible=0;recursiveResize=0;shape=mxgraph.aws4.group;grIcon=mxgraph.aws4.group_security_group;grStroke=0;strokeColor=#248814;fillColor=#E9F3E6;verticalAlign=top;align=left;spacingLeft=30;fontColor=#248814;dashed=0;" vertex="1" parent="jC54yRx2bqBDCMhFd0Ce-110">
          <mxGeometry x="20.460475825019188" y="18.83720930232558" width="550.5295471987721" height="207.20930232558138" as="geometry" />
        </mxCell>
        <mxCell id="jC54yRx2bqBDCMhFd0Ce-111" value="" style="outlineConnect=0;dashed=0;verticalLabelPosition=bottom;verticalAlign=top;align=center;html=1;shape=mxgraph.aws3.vpc_nat_gateway;fillColor=#F58534;gradientColor=none;" vertex="1" parent="jC54yRx2bqBDCMhFd0Ce-110">
          <mxGeometry x="39.4934765924789" y="141.27906976744185" width="73.75287797390638" height="52.74418604651162" as="geometry" />
        </mxCell>
        <mxCell id="jC54yRx2bqBDCMhFd0Ce-112" value="NAT GW" style="text;html=1;strokeColor=none;fillColor=none;align=center;verticalAlign=middle;whiteSpace=wrap;rounded=0;dashed=1;" vertex="1" parent="jC54yRx2bqBDCMhFd0Ce-110">
          <mxGeometry x="49.00997697620875" y="197.79069767441857" width="57.09900230237913" height="28.25581395348837" as="geometry" />
        </mxCell>
        <mxCell id="jC54yRx2bqBDCMhFd0Ce-169" value="&lt;font style=&quot;font-size: 19px;&quot;&gt;VPC Endpoints&lt;/font&gt;" style="text;html=1;strokeColor=none;fillColor=none;align=center;verticalAlign=middle;whiteSpace=wrap;rounded=0;dashed=1;" vertex="1" parent="jC54yRx2bqBDCMhFd0Ce-110">
          <mxGeometry x="68.04297774366846" y="518.0232558139535" width="391.128165771297" height="28.25581395348837" as="geometry" />
        </mxCell>
        <mxCell id="jC54yRx2bqBDCMhFd0Ce-175" value="" style="group" vertex="1" connectable="0" parent="jC54yRx2bqBDCMhFd0Ce-110">
          <mxGeometry x="25.694551036070607" y="254.3023255813953" width="564.3284727551804" height="254.3023255813953" as="geometry" />
        </mxCell>
        <mxCell id="jC54yRx2bqBDCMhFd0Ce-108" value="Private subnet" style="points=[[0,0],[0.25,0],[0.5,0],[0.75,0],[1,0],[1,0.25],[1,0.5],[1,0.75],[1,1],[0.75,1],[0.5,1],[0.25,1],[0,1],[0,0.75],[0,0.5],[0,0.25]];outlineConnect=0;gradientColor=none;html=1;whiteSpace=wrap;fontSize=12;fontStyle=0;container=1;pointerEvents=0;collapsible=0;recursiveResize=0;shape=mxgraph.aws4.group;grIcon=mxgraph.aws4.group_security_group;grStroke=0;strokeColor=#147EBA;fillColor=#E6F2F8;verticalAlign=top;align=left;spacingLeft=30;fontColor=#147EBA;dashed=0;" vertex="1" parent="jC54yRx2bqBDCMhFd0Ce-175">
          <mxGeometry width="546.2988090888808" height="254.3023255813953" as="geometry" />
        </mxCell>
        <mxCell id="jC54yRx2bqBDCMhFd0Ce-166" value="" style="endArrow=classic;startArrow=classic;html=1;rounded=0;dashed=1;exitX=0.5;exitY=0;exitDx=0;exitDy=0;exitPerimeter=0;" edge="1" parent="jC54yRx2bqBDCMhFd0Ce-108" source="jC54yRx2bqBDCMhFd0Ce-143">
          <mxGeometry width="50" height="50" relative="1" as="geometry">
            <mxPoint x="310.61961446929934" y="310.65356097775606" as="sourcePoint" />
            <mxPoint x="368.2885648503454" y="188.37209302325576" as="targetPoint" />
            <Array as="points">
              <mxPoint x="309.8107341377358" y="237.46111196673334" />
              <mxPoint x="368.4071410532098" y="237.46111196673334" />
            </Array>
          </mxGeometry>
        </mxCell>
        <mxCell id="jC54yRx2bqBDCMhFd0Ce-167" value="" style="endArrow=classic;startArrow=classic;html=1;rounded=0;dashed=1;" edge="1" parent="jC54yRx2bqBDCMhFd0Ce-108" source="jC54yRx2bqBDCMhFd0Ce-144">
          <mxGeometry width="50" height="50" relative="1" as="geometry">
            <mxPoint x="400.0671170377148" y="308.9694396162899" as="sourcePoint" />
            <mxPoint x="406.3545663852648" y="193.08139534883716" as="targetPoint" />
            <Array as="points" />
          </mxGeometry>
        </mxCell>
        <mxCell id="jC54yRx2bqBDCMhFd0Ce-146" value="" style="group" vertex="1" connectable="0" parent="jC54yRx2bqBDCMhFd0Ce-175">
          <mxGeometry x="284.8669224865695" y="29.470813953488367" width="162.4085955487337" height="160.1162790697674" as="geometry" />
        </mxCell>
        <mxCell id="jC54yRx2bqBDCMhFd0Ce-177" value="" style="group" vertex="1" connectable="0" parent="jC54yRx2bqBDCMhFd0Ce-146">
          <mxGeometry width="161.78050652340752" height="160.1162790697674" as="geometry" />
        </mxCell>
        <mxCell id="jC54yRx2bqBDCMhFd0Ce-113" value="" style="whiteSpace=wrap;html=1;aspect=fixed;dashed=1;" vertex="1" parent="jC54yRx2bqBDCMhFd0Ce-177">
          <mxGeometry width="152.37466312088378" height="152.37466312088378" as="geometry" />
        </mxCell>
        <mxCell id="jC54yRx2bqBDCMhFd0Ce-114" value="" style="outlineConnect=0;dashed=0;verticalLabelPosition=bottom;verticalAlign=top;align=center;html=1;shape=mxgraph.aws3.ecs;fillColor=#F58534;gradientColor=none;" vertex="1" parent="jC54yRx2bqBDCMhFd0Ce-177">
          <mxGeometry x="10.591864927091331" y="6.224059656218399" width="31.42253261703761" height="24.896238624873597" as="geometry" />
        </mxCell>
        <mxCell id="jC54yRx2bqBDCMhFd0Ce-115" value="" style="outlineConnect=0;dashed=0;verticalLabelPosition=bottom;verticalAlign=top;align=center;html=1;shape=mxgraph.aws3.ecs;fillColor=#F58534;gradientColor=none;" vertex="1" parent="jC54yRx2bqBDCMhFd0Ce-177">
          <mxGeometry x="67.08181120491177" y="6.224059656218399" width="31.42253261703761" height="24.896238624873597" as="geometry" />
        </mxCell>
        <mxCell id="jC54yRx2bqBDCMhFd0Ce-116" value="" style="outlineConnect=0;dashed=0;verticalLabelPosition=bottom;verticalAlign=top;align=center;html=1;shape=mxgraph.aws3.ecs;fillColor=#F58534;gradientColor=none;" vertex="1" parent="jC54yRx2bqBDCMhFd0Ce-177">
          <mxGeometry x="123.57175748273218" y="6.224059656218399" width="31.42253261703761" height="24.896238624873597" as="geometry" />
        </mxCell>
        <mxCell id="jC54yRx2bqBDCMhFd0Ce-117" value="" style="outlineConnect=0;dashed=0;verticalLabelPosition=bottom;verticalAlign=top;align=center;html=1;shape=mxgraph.aws3.ecs;fillColor=#F58534;gradientColor=none;" vertex="1" parent="jC54yRx2bqBDCMhFd0Ce-177">
          <mxGeometry x="10.591864927091331" y="43.56841759352881" width="31.42253261703761" height="24.896238624873597" as="geometry" />
        </mxCell>
        <mxCell id="jC54yRx2bqBDCMhFd0Ce-118" value="" style="outlineConnect=0;dashed=0;verticalLabelPosition=bottom;verticalAlign=top;align=center;html=1;shape=mxgraph.aws3.ecs;fillColor=#F58534;gradientColor=none;" vertex="1" parent="jC54yRx2bqBDCMhFd0Ce-177">
          <mxGeometry x="67.08181120491177" y="43.56841759352881" width="31.42253261703761" height="24.896238624873597" as="geometry" />
        </mxCell>
        <mxCell id="jC54yRx2bqBDCMhFd0Ce-119" value="" style="outlineConnect=0;dashed=0;verticalLabelPosition=bottom;verticalAlign=top;align=center;html=1;shape=mxgraph.aws3.ecs;fillColor=#F58534;gradientColor=none;" vertex="1" parent="jC54yRx2bqBDCMhFd0Ce-177">
          <mxGeometry x="123.57175748273218" y="43.56841759352881" width="31.42253261703761" height="24.896238624873597" as="geometry" />
        </mxCell>
        <mxCell id="jC54yRx2bqBDCMhFd0Ce-129" value="" style="outlineConnect=0;dashed=0;verticalLabelPosition=bottom;verticalAlign=top;align=center;html=1;shape=mxgraph.aws3.ecs;fillColor=#F58534;gradientColor=none;" vertex="1" parent="jC54yRx2bqBDCMhFd0Ce-177">
          <mxGeometry x="10.591864927091331" y="74.6887158746208" width="31.42253261703761" height="24.896238624873597" as="geometry" />
        </mxCell>
        <mxCell id="jC54yRx2bqBDCMhFd0Ce-130" value="" style="outlineConnect=0;dashed=0;verticalLabelPosition=bottom;verticalAlign=top;align=center;html=1;shape=mxgraph.aws3.ecs;fillColor=#F58534;gradientColor=none;" vertex="1" parent="jC54yRx2bqBDCMhFd0Ce-177">
          <mxGeometry x="67.08181120491177" y="74.6887158746208" width="31.42253261703761" height="24.896238624873597" as="geometry" />
        </mxCell>
        <mxCell id="jC54yRx2bqBDCMhFd0Ce-131" value="" style="outlineConnect=0;dashed=0;verticalLabelPosition=bottom;verticalAlign=top;align=center;html=1;shape=mxgraph.aws3.ecs;fillColor=#F58534;gradientColor=none;" vertex="1" parent="jC54yRx2bqBDCMhFd0Ce-177">
          <mxGeometry x="123.57175748273218" y="74.6887158746208" width="31.42253261703761" height="24.896238624873597" as="geometry" />
        </mxCell>
        <mxCell id="jC54yRx2bqBDCMhFd0Ce-132" value="" style="outlineConnect=0;dashed=0;verticalLabelPosition=bottom;verticalAlign=top;align=center;html=1;shape=mxgraph.aws3.ecs;fillColor=#F58534;gradientColor=none;" vertex="1" parent="jC54yRx2bqBDCMhFd0Ce-177">
          <mxGeometry x="10.591864927091331" y="112.0330738119312" width="31.42253261703761" height="24.896238624873597" as="geometry" />
        </mxCell>
        <mxCell id="jC54yRx2bqBDCMhFd0Ce-133" value="" style="outlineConnect=0;dashed=0;verticalLabelPosition=bottom;verticalAlign=top;align=center;html=1;shape=mxgraph.aws3.ecs;fillColor=#F58534;gradientColor=none;" vertex="1" parent="jC54yRx2bqBDCMhFd0Ce-177">
          <mxGeometry x="67.08181120491177" y="112.0330738119312" width="31.42253261703761" height="24.896238624873597" as="geometry" />
        </mxCell>
        <mxCell id="jC54yRx2bqBDCMhFd0Ce-134" value="" style="outlineConnect=0;dashed=0;verticalLabelPosition=bottom;verticalAlign=top;align=center;html=1;shape=mxgraph.aws3.ecs;fillColor=#F58534;gradientColor=none;" vertex="1" parent="jC54yRx2bqBDCMhFd0Ce-177">
          <mxGeometry x="123.57175748273218" y="112.0330738119312" width="31.42253261703761" height="24.896238624873597" as="geometry" />
        </mxCell>
        <mxCell id="jC54yRx2bqBDCMhFd0Ce-174" value="" style="group" vertex="1" connectable="0" parent="jC54yRx2bqBDCMhFd0Ce-175">
          <mxGeometry x="50.48305826563915" y="8.42060680733097" width="513.8454144895413" height="130.51940551363006" as="geometry" />
        </mxCell>
        <mxCell id="jC54yRx2bqBDCMhFd0Ce-136" value="Network Load Balancer" style="sketch=0;outlineConnect=0;fontColor=#232F3E;gradientColor=none;strokeColor=#ffffff;fillColor=#232F3E;dashed=0;verticalLabelPosition=middle;verticalAlign=bottom;align=center;html=1;whiteSpace=wrap;fontSize=10;fontStyle=1;spacing=3;shape=mxgraph.aws4.productIcon;prIcon=mxgraph.aws4.network_load_balancer;" vertex="1" parent="jC54yRx2bqBDCMhFd0Ce-174">
          <mxGeometry y="43.78715539812106" width="70.7664298902263" height="86.73225011550902" as="geometry" />
        </mxCell>
        <mxCell id="jC54yRx2bqBDCMhFd0Ce-147" value="Track Specific services running in designated Track ECS Clsuter" style="text;html=1;strokeColor=none;fillColor=none;align=center;verticalAlign=middle;whiteSpace=wrap;rounded=0;dashed=1;rotation=-90;" vertex="1" parent="jC54yRx2bqBDCMhFd0Ce-174">
          <mxGeometry x="352.06326614178647" y="85.76993069459418" width="133.87025272227524" height="33.682427229323885" as="geometry" />
        </mxCell>
        <mxCell id="jC54yRx2bqBDCMhFd0Ce-171" value="" style="endArrow=classic;startArrow=classic;html=1;rounded=0;dashed=1;exitX=0.5;exitY=0;exitDx=0;exitDy=0;exitPerimeter=0;entryX=0.869;entryY=1.01;entryDx=0;entryDy=0;entryPerimeter=0;" edge="1" parent="jC54yRx2bqBDCMhFd0Ce-110" source="jC54yRx2bqBDCMhFd0Ce-145" target="jC54yRx2bqBDCMhFd0Ce-113">
          <mxGeometry width="50" height="50" relative="1" as="geometry">
            <mxPoint x="532.6077862966649" y="590.4754983388706" as="sourcePoint" />
            <mxPoint x="465.61381427475055" y="442.92872093023254" as="targetPoint" />
            <Array as="points">
              <mxPoint x="513.8910207214121" y="489.7674418604651" />
              <mxPoint x="451.0821181887951" y="489.7674418604651" />
            </Array>
          </mxGeometry>
        </mxCell>
        <mxCell id="jC54yRx2bqBDCMhFd0Ce-163" value="" style="endArrow=classic;startArrow=classic;html=1;rounded=0;dashed=1;exitX=0.5;exitY=0;exitDx=0;exitDy=0;exitPerimeter=0;entryX=0.176;entryY=1.003;entryDx=0;entryDy=0;entryPerimeter=0;" edge="1" parent="jC54yRx2bqBDCMhFd0Ce-110" source="jC54yRx2bqBDCMhFd0Ce-141" target="jC54yRx2bqBDCMhFd0Ce-113">
          <mxGeometry width="50" height="50" relative="1" as="geometry">
            <mxPoint x="210.79048349961627" y="437.24298770049245" as="sourcePoint" />
            <mxPoint x="383.51496546431315" y="436.08139534883713" as="targetPoint" />
            <Array as="points">
              <mxPoint x="171.2970069071374" y="461.5116279069767" />
              <mxPoint x="335.93246354566384" y="461.5116279069767" />
            </Array>
          </mxGeometry>
        </mxCell>
        <mxCell id="jC54yRx2bqBDCMhFd0Ce-162" value="" style="endArrow=classic;startArrow=classic;html=1;rounded=0;dashed=1;exitX=0.75;exitY=0;exitDx=0;exitDy=0;exitPerimeter=0;" edge="1" parent="jC54yRx2bqBDCMhFd0Ce-110" source="jC54yRx2bqBDCMhFd0Ce-140">
          <mxGeometry width="50" height="50" relative="1" as="geometry">
            <mxPoint x="156.07060629316962" y="437.24298770049245" as="sourcePoint" />
            <mxPoint x="304.5280122793553" y="405" as="targetPoint" />
            <Array as="points">
              <mxPoint x="106.58480429777437" y="405" />
            </Array>
          </mxGeometry>
        </mxCell>
        <mxCell id="jC54yRx2bqBDCMhFd0Ce-168" value="" style="endArrow=classic;startArrow=classic;html=1;rounded=0;dashed=1;entryX=0.047;entryY=0.991;entryDx=0;entryDy=0;entryPerimeter=0;" edge="1" parent="jC54yRx2bqBDCMhFd0Ce-110" target="jC54yRx2bqBDCMhFd0Ce-113">
          <mxGeometry width="50" height="50" relative="1" as="geometry">
            <mxPoint x="115.62547966231773" y="687.5581395348837" as="sourcePoint" />
            <mxPoint x="334.5049884881044" y="452.09302325581393" as="targetPoint" />
            <Array as="points">
              <mxPoint x="135.61013046815043" y="687.5581395348837" />
              <mxPoint x="135.80997697620873" y="452.09302325581393" />
              <mxPoint x="316.89946277820417" y="452.09302325581393" />
            </Array>
          </mxGeometry>
        </mxCell>
        <mxCell id="jC54yRx2bqBDCMhFd0Ce-135" value="ECS" style="text;html=1;strokeColor=none;fillColor=none;align=center;verticalAlign=middle;whiteSpace=wrap;rounded=0;dashed=1;" vertex="1" parent="jC54yRx2bqBDCMhFd0Ce-110">
          <mxGeometry x="361.63075429274784" y="262.72293238872635" width="54.088990998899085" height="18.52533497612814" as="geometry" />
        </mxCell>
        <mxCell id="jC54yRx2bqBDCMhFd0Ce-165" value="" style="endArrow=classic;startArrow=classic;html=1;rounded=0;dashed=1;entryX=0.298;entryY=0.998;entryDx=0;entryDy=0;entryPerimeter=0;exitX=0.5;exitY=0;exitDx=0;exitDy=0;exitPerimeter=0;" edge="1" parent="jC54yRx2bqBDCMhFd0Ce-110" source="jC54yRx2bqBDCMhFd0Ce-142" target="jC54yRx2bqBDCMhFd0Ce-113">
          <mxGeometry width="50" height="50" relative="1" as="geometry">
            <mxPoint x="257.4775830658667" y="559.1282920067764" as="sourcePoint" />
            <mxPoint x="382.0113584036837" y="443.40906976744157" as="targetPoint" />
            <Array as="points">
              <mxPoint x="257.4775830658667" y="468.185738487602" />
              <mxPoint x="314.0445126630852" y="468.1046511627907" />
              <mxPoint x="358.7720644666155" y="468.1046511627907" />
            </Array>
          </mxGeometry>
        </mxCell>
        <mxCell id="jC54yRx2bqBDCMhFd0Ce-149" value="" style="outlineConnect=0;dashed=0;verticalLabelPosition=bottom;verticalAlign=top;align=center;html=1;shape=mxgraph.aws3.api_gateway;fillColor=#D9A741;gradientColor=none;" vertex="1" parent="jC54yRx2bqBDCMhFd0Ce-91">
          <mxGeometry x="9" y="403" width="76.5" height="93" as="geometry" />
        </mxCell>
        <mxCell id="jC54yRx2bqBDCMhFd0Ce-98" value="AZ1" style="text;html=1;align=center;verticalAlign=middle;resizable=0;points=[];autosize=1;strokeColor=none;fillColor=none;" vertex="1" parent="1">
          <mxGeometry x="175" y="1625" width="50" height="30" as="geometry" />
        </mxCell>
        <mxCell id="jC54yRx2bqBDCMhFd0Ce-102" value="AWS Account" style="points=[[0,0],[0.25,0],[0.5,0],[0.75,0],[1,0],[1,0.25],[1,0.5],[1,0.75],[1,1],[0.75,1],[0.5,1],[0.25,1],[0,1],[0,0.75],[0,0.5],[0,0.25]];outlineConnect=0;gradientColor=none;html=1;whiteSpace=wrap;fontSize=12;fontStyle=0;container=1;pointerEvents=0;collapsible=0;recursiveResize=0;shape=mxgraph.aws4.group;grIcon=mxgraph.aws4.group_account;strokeColor=#CD2264;fillColor=none;verticalAlign=top;align=left;spacingLeft=30;fontColor=#CD2264;dashed=0;" vertex="1" parent="1">
          <mxGeometry x="680" y="490" width="120" height="110" as="geometry" />
        </mxCell>
        <mxCell id="jC54yRx2bqBDCMhFd0Ce-103" value="Auth(Delete it)" style="text;html=1;resizable=0;points=[];autosize=1;align=left;verticalAlign=top;spacingTop=-4;fontSize=16" vertex="1" parent="1">
          <mxGeometry x="705" y="460" width="130" height="30" as="geometry" />
        </mxCell>
        <mxCell id="jC54yRx2bqBDCMhFd0Ce-104" value="" style="endArrow=classic;startArrow=classic;html=1;rounded=0;exitX=0.5;exitY=1;exitDx=0;exitDy=0;entryX=1;entryY=0;entryDx=0;entryDy=0;" edge="1" parent="1" source="jC54yRx2bqBDCMhFd0Ce-102" target="jC54yRx2bqBDCMhFd0Ce-7">
          <mxGeometry width="50" height="50" relative="1" as="geometry">
            <mxPoint x="550" y="610" as="sourcePoint" />
            <mxPoint x="550" y="685" as="targetPoint" />
          </mxGeometry>
        </mxCell>
        <mxCell id="jC54yRx2bqBDCMhFd0Ce-105" value="" style="sketch=0;outlineConnect=0;fontColor=#232F3E;gradientColor=none;fillColor=#4D27AA;strokeColor=none;dashed=0;verticalLabelPosition=bottom;verticalAlign=top;align=center;html=1;fontSize=12;fontStyle=0;aspect=fixed;pointerEvents=1;shape=mxgraph.aws4.transit_gateway_attachment;" vertex="1" parent="1">
          <mxGeometry x="548" y="627" width="33" height="33" as="geometry" />
        </mxCell>
        <mxCell id="jC54yRx2bqBDCMhFd0Ce-106" value="TGW-A" style="text;html=1;align=center;verticalAlign=middle;resizable=0;points=[];autosize=1;strokeColor=none;fillColor=none;" vertex="1" parent="1">
          <mxGeometry x="534" y="605" width="60" height="30" as="geometry" />
        </mxCell>
        <mxCell id="jC54yRx2bqBDCMhFd0Ce-148" value="" style="endArrow=classic;startArrow=classic;html=1;rounded=0;dashed=1;" edge="1" parent="1" source="jC54yRx2bqBDCMhFd0Ce-136">
          <mxGeometry width="50" height="50" relative="1" as="geometry">
            <mxPoint x="510" y="2090" as="sourcePoint" />
            <mxPoint x="570" y="2060" as="targetPoint" />
          </mxGeometry>
        </mxCell>
      </root>
    </mxGraphModel>
  </diagram>
</mxfile>
